<svg width="32" height="32" viewBox="0 0 32 32" fill="none" xmlns="http://www.w3.org/2000/svg">
<g clip-path="url(#clip0_287_2588)">
<mask id="mask0_287_2588" style="mask-type:luminance" maskUnits="userSpaceOnUse" x="0" y="0" width="32" height="32">
<path d="M32 0H0V32H32V0Z" fill="white"/>
</mask>
<g mask="url(#mask0_287_2588)">
<path d="M32 0H0V32H32V0Z" fill="#FAA500"/>
<path d="M-2 16C-1.85945 21.4211 5 21.2448 5 16" stroke="#F5F5F5" stroke-width="3" stroke-linecap="round"/>
<path d="M12 16C11.8595 10.5789 5 10.7552 5 16" stroke="#F5F5F5" stroke-width="3" stroke-linecap="round"/>
<path d="M12 16C12.1606 21.4211 20 21.2448 20 16" stroke="#F5F5F5" stroke-width="3" stroke-linecap="round"/>
<path d="M27 16C26.8594 10.5789 20 10.7552 20 16" stroke="#F5F5F5" stroke-width="3" stroke-linecap="round"/>
<path d="M27 16C27.1405 21.4211 34 21.2448 34 16" stroke="#F5F5F5" stroke-width="3" stroke-linecap="round"/>
</g>
</g>
<defs>
<clipPath id="clip0_287_2588">
<rect width="32" height="32" rx="6" fill="white"/>
</clipPath>
</defs>
</svg>
