<svg width="315" height="300" viewBox="0 0 547 520" fill="none" xmlns="http://www.w3.org/2000/svg">
<path d="M148.145 9.39787C148.145 5.93778 145.339 3.13281 141.877 3.13281C138.416 3.13281 135.609 5.93778 135.609 9.39787V65.7834C135.609 69.2435 138.416 72.0485 141.877 72.0485C145.339 72.0485 148.145 69.2435 148.145 65.7834V9.39787Z" fill="#FAFAFA" stroke="black" stroke-width="4"/>
<path d="M405.122 9.39787C405.122 5.93778 402.315 3.13281 398.854 3.13281C395.392 3.13281 392.586 5.93778 392.586 9.39787V65.7834C392.586 69.2435 395.392 72.0485 398.854 72.0485C402.315 72.0485 405.122 69.2435 405.122 65.7834V9.39787Z" fill="#FAFAFA" stroke="black" stroke-width="4"/>
<path d="M405.122 9.39787C405.122 5.93777 402.315 3.13281 398.854 3.13281C395.392 3.13281 392.586 5.93777 392.586 9.39787V21.928C392.586 25.3881 395.392 28.1931 398.854 28.1931C402.315 28.1931 405.122 25.3881 405.122 21.928V9.39787Z" fill="#FAA500" stroke="black" stroke-width="4"/>
<path d="M148.145 9.39787C148.145 5.93777 145.339 3.13281 141.877 3.13281C138.416 3.13281 135.609 5.93777 135.609 9.39787V21.928C135.609 25.3881 138.416 28.1931 141.877 28.1931C145.339 28.1931 148.145 25.3881 148.145 21.928V9.39787Z" fill="#FAA500" stroke="black" stroke-width="4"/>
<path d="M411.394 81.4439C411.394 72.7937 404.378 65.7812 395.724 65.7812C387.07 65.7812 380.055 72.7937 380.055 81.4439V119.034C380.055 127.685 387.07 134.697 395.724 134.697C404.378 134.697 411.394 127.685 411.394 119.034V81.4439Z" fill="#FAFAFA" stroke="black" stroke-width="4"/>
<path d="M160.683 81.4439C160.683 72.7937 153.667 65.7812 145.013 65.7812C136.359 65.7812 129.344 72.7937 129.344 81.4439V119.034C129.344 127.685 136.359 134.697 145.013 134.697C153.667 134.697 160.683 127.685 160.683 119.034V81.4439Z" fill="#FAFAFA" stroke="black" stroke-width="4"/>
<g filter="url(#filter0_d_56_1404)">
<path d="M380.05 250.179C380.05 339.523 317.224 460.479 276.294 460.479C235.363 460.479 160.68 339.523 160.68 250.179C160.68 160.834 235.363 227.53 276.294 227.53C317.224 227.53 380.05 160.834 380.05 250.179Z" fill="#FAFAFA"/>
<path d="M380.052 248.184C380.052 293.32 364.082 346.689 342.815 388.807C332.189 409.851 320.316 427.934 308.592 440.703C296.716 453.637 285.583 460.479 276.464 460.479C271.95 460.479 266.696 458.807 260.844 455.402C255.012 452.009 248.768 447 242.332 440.6C229.46 427.802 216.071 409.697 203.932 388.654C179.624 346.512 160.68 293.203 160.68 248.184C160.68 225.532 165.472 213.899 172.198 208.366C178.869 202.878 188.491 202.543 200.513 205.315C210.222 207.553 220.773 211.633 231.514 215.786C234.005 216.75 236.507 217.717 239.011 218.666C252.056 223.613 265.276 228.115 276.464 228.115C287.691 228.115 300.159 223.591 312.103 218.631C314.949 217.448 317.765 216.242 320.543 215.052C329.682 211.137 338.41 207.399 346.411 205.292C356.859 202.54 364.781 202.932 370.258 208.204C375.979 213.711 380.052 225.416 380.052 248.184Z" stroke="black" stroke-width="4"/>
</g>
<path d="M183.414 338.316C262.406 313.445 287.784 317.497 362.046 338.315" stroke="black" stroke-width="4" stroke-linecap="round"/>
<path d="M270.369 372.777C296.332 372.777 317.379 351.739 317.379 325.787C317.379 299.835 296.332 278.797 270.369 278.797C244.406 278.797 223.359 299.835 223.359 325.787C223.359 351.739 244.406 372.777 270.369 372.777Z" fill="#FAA500"/>
<path d="M223.359 325.781C223.737 342.763 242.164 342.211 242.164 325.781" stroke="#FAFAFA" stroke-width="4" stroke-linecap="round"/>
<path d="M260.961 325.78C260.584 308.798 242.156 309.351 242.156 325.78" stroke="#FAFAFA" stroke-width="4" stroke-linecap="round"/>
<path d="M260.961 325.781C261.338 342.763 279.766 342.211 279.766 325.781" stroke="#FAFAFA" stroke-width="4" stroke-linecap="round"/>
<path d="M298.57 325.78C298.193 308.798 279.766 309.351 279.766 325.78" stroke="#FAFAFA" stroke-width="4" stroke-linecap="round"/>
<path d="M298.57 325.781C298.948 342.763 317.375 342.211 317.375 325.781" stroke="#FAFAFA" stroke-width="4" stroke-linecap="round"/>
<path d="M270.368 372.773C296.33 372.773 317.376 351.736 317.376 325.785C317.376 299.834 296.33 278.797 270.368 278.797C244.406 278.797 223.359 299.834 223.359 325.785C223.359 351.736 244.406 372.773 270.368 372.773Z" stroke="black" stroke-width="4"/>
<path d="M123.66 222.836C127.209 225 129.792 228.865 131.186 234.488C132.583 240.129 132.716 247.322 131.5 255.657C129.07 272.315 121.342 292.917 108.779 313.409C96.2176 333.901 81.3542 350.149 67.597 359.897C60.714 364.773 54.236 367.931 48.5655 369.26C42.9134 370.584 38.2882 370.05 34.7399 367.885C31.1917 365.72 28.6081 361.856 27.2149 356.233C25.8171 350.591 25.6843 343.399 26.9005 335.064C29.3311 318.406 37.0585 297.803 49.6208 277.312C62.1832 256.82 77.0463 240.572 90.8029 230.824C97.6868 225.948 104.165 222.789 109.835 221.461C115.487 220.136 120.112 220.671 123.66 222.836Z" fill="#FAFAFA" stroke="black" stroke-width="4"/>
<path d="M417.083 222.836C413.535 225 410.952 228.865 409.559 234.488C408.161 240.129 408.028 247.322 409.244 255.657C411.675 272.315 419.402 292.917 431.964 313.409C444.527 333.901 459.39 350.149 473.147 359.897C480.03 364.773 486.509 367.931 492.179 369.26C497.831 370.584 502.456 370.05 506.004 367.885C509.553 365.72 512.136 361.856 513.53 356.233C514.927 350.591 515.06 343.399 513.844 335.064C511.413 318.406 503.686 297.803 491.123 277.312C478.561 256.82 463.698 240.572 449.941 230.824C443.058 225.948 436.58 222.789 430.91 221.461C425.257 220.136 420.632 220.671 417.083 222.836Z" fill="#FAFAFA" stroke="black" stroke-width="4"/>
<path d="M392.584 100.241C392.584 153.257 338.552 197.35 270.362 197.35C202.173 197.35 148.141 153.257 148.141 100.241C148.141 47.2259 202.173 3.13281 270.362 3.13281C338.552 3.13281 392.584 47.2259 392.584 100.241Z" fill="#FAFAFA" stroke="black" stroke-width="4"/>
<path d="M376.917 100.243C376.917 145.224 329.212 115.905 270.365 115.905C211.518 115.905 163.812 145.224 163.812 100.243C163.812 55.2614 211.518 18.7969 270.365 18.7969C329.212 18.7969 376.917 55.2614 376.917 100.243Z" fill="black"/>
<g filter="url(#filter1_d_56_1404)">
<path d="M195.152 93.9737C191.69 93.9737 188.821 91.1413 189.509 87.75C190.724 81.7606 193.676 76.2092 198.063 71.8236C203.94 65.9489 211.911 62.6484 220.223 62.6484C228.535 62.6484 236.506 65.9489 242.383 71.8236C246.77 76.2092 249.722 81.7606 250.937 87.75C251.625 91.1413 248.756 93.9737 245.294 93.9737C241.832 93.9737 239.124 91.0937 237.992 87.824C237.069 85.1613 235.55 82.7142 233.519 80.6837C229.993 77.1589 225.21 75.1786 220.223 75.1786C215.236 75.1786 210.453 77.1589 206.927 80.6837C204.896 82.7142 203.377 85.1613 202.454 87.824C201.322 91.0937 198.614 93.9737 195.152 93.9737Z" fill="#FAA500"/>
</g>
<g filter="url(#filter2_d_56_1404)">
<path d="M295.441 93.9737C291.979 93.9737 289.11 91.1413 289.798 87.75C291.013 81.7606 293.965 76.2092 298.352 71.8236C304.229 65.9489 312.2 62.6484 320.512 62.6484C328.824 62.6484 336.795 65.9489 342.672 71.8236C347.059 76.2092 350.011 81.7606 351.226 87.75C351.914 91.1413 349.045 93.9737 345.583 93.9737C342.121 93.9737 339.413 91.0937 338.281 87.824C337.358 85.1613 335.839 82.7142 333.808 80.6837C330.282 77.1589 325.499 75.1786 320.512 75.1786C315.525 75.1786 310.742 77.1589 307.216 80.6837C305.185 82.7142 303.666 85.1613 302.743 87.824C301.611 91.0937 298.903 93.9737 295.441 93.9737Z" fill="#FAA500"/>
</g>
<defs>
<filter id="filter0_d_56_1404" x="150.68" y="194.609" width="239.375" height="276.867" filterUnits="userSpaceOnUse" color-interpolation-filters="sRGB">
<feFlood flood-opacity="0" result="BackgroundImageFix"/>
<feColorMatrix in="SourceAlpha" type="matrix" values="0 0 0 0 0 0 0 0 0 0 0 0 0 0 0 0 0 0 127 0" result="hardAlpha"/>
<feOffset dy="1"/>
<feGaussianBlur stdDeviation="4"/>
<feComposite in2="hardAlpha" operator="out"/>
<feColorMatrix type="matrix" values="0 0 0 0 0 0 0 0 0 0 0 0 0 0 0 0 0 0 0.25 0"/>
<feBlend mode="normal" in2="BackgroundImageFix" result="effect1_dropShadow_56_1404"/>
<feBlend mode="normal" in="SourceGraphic" in2="effect1_dropShadow_56_1404" result="shape"/>
</filter>
<filter id="filter1_d_56_1404" x="165.406" y="38.6484" width="109.633" height="79.3281" filterUnits="userSpaceOnUse" color-interpolation-filters="sRGB">
<feFlood flood-opacity="0" result="BackgroundImageFix"/>
<feColorMatrix in="SourceAlpha" type="matrix" values="0 0 0 0 0 0 0 0 0 0 0 0 0 0 0 0 0 0 127 0" result="hardAlpha"/>
<feOffset/>
<feGaussianBlur stdDeviation="12"/>
<feComposite in2="hardAlpha" operator="out"/>
<feColorMatrix type="matrix" values="0 0 0 0 0.980392 0 0 0 0 0.647059 0 0 0 0 0 0 0 0 1 0"/>
<feBlend mode="normal" in2="BackgroundImageFix" result="effect1_dropShadow_56_1404"/>
<feBlend mode="normal" in="SourceGraphic" in2="effect1_dropShadow_56_1404" result="shape"/>
</filter>
<filter id="filter2_d_56_1404" x="265.695" y="38.6484" width="109.633" height="79.3281" filterUnits="userSpaceOnUse" color-interpolation-filters="sRGB">
<feFlood flood-opacity="0" result="BackgroundImageFix"/>
<feColorMatrix in="SourceAlpha" type="matrix" values="0 0 0 0 0 0 0 0 0 0 0 0 0 0 0 0 0 0 127 0" result="hardAlpha"/>
<feOffset/>
<feGaussianBlur stdDeviation="12"/>
<feComposite in2="hardAlpha" operator="out"/>
<feColorMatrix type="matrix" values="0 0 0 0 0.980392 0 0 0 0 0.647059 0 0 0 0 0 0 0 0 1 0"/>
<feBlend mode="normal" in2="BackgroundImageFix" result="effect1_dropShadow_56_1404"/>
<feBlend mode="normal" in="SourceGraphic" in2="effect1_dropShadow_56_1404" result="shape"/>
</filter>
</defs>
</svg>
