<svg width="80" height="80" viewBox="0 0 81 80" fill="none" xmlns="http://www.w3.org/2000/svg">
<path d="M70.5 16.25H10.5C10.1685 16.25 9.85054 16.3817 9.61612 16.6161C9.3817 16.8505 9.25 17.1685 9.25 17.5V60C9.25 60.9946 9.64509 61.9484 10.3483 62.6516C11.0516 63.3549 12.0054 63.75 13 63.75H68C68.9946 63.75 69.9484 63.3549 70.6516 62.6516C71.3549 61.9484 71.75 60.9946 71.75 60V17.5C71.75 17.1685 71.6183 16.8505 71.3839 16.6161C71.1495 16.3817 70.8315 16.25 70.5 16.25ZM67.2875 18.75L40.5 43.3031L13.7125 18.75H67.2875ZM68 61.25H13C12.6685 61.25 12.3505 61.1183 12.1161 60.8839C11.8817 60.6495 11.75 60.3315 11.75 60V20.3406L39.6562 45.9375C39.8867 46.1483 40.1877 46.2652 40.5 46.2652C40.8123 46.2652 41.1133 46.1483 41.3438 45.9375L69.25 20.3406V60C69.25 60.3315 69.1183 60.6495 68.8839 60.8839C68.6495 61.1183 68.3315 61.25 68 61.25Z" fill="black"/>
</svg>
