<svg width="210" height="80" viewBox="0 0 210 80" fill="none" xmlns="http://www.w3.org/2000/svg">
<rect x="0.851562" width="209" height="80" rx="32" fill="#FAA500"/>
<path d="M71.7092 47.24C70.5892 47.24 69.5159 47.0933 68.4892 46.8C67.4626 46.4933 66.6359 46.1 66.0092 45.62L67.1092 43.18C67.7092 43.6067 68.4159 43.96 69.2292 44.24C70.0559 44.5067 70.8892 44.64 71.7292 44.64C72.3692 44.64 72.8826 44.58 73.2692 44.46C73.6692 44.3267 73.9626 44.1467 74.1492 43.92C74.3359 43.6933 74.4292 43.4333 74.4292 43.14C74.4292 42.7667 74.2826 42.4733 73.9892 42.26C73.6959 42.0333 73.3092 41.8533 72.8292 41.72C72.3492 41.5733 71.8159 41.44 71.2292 41.32C70.6559 41.1867 70.0759 41.0267 69.4892 40.84C68.9159 40.6533 68.3892 40.4133 67.9092 40.12C67.4292 39.8267 67.0359 39.44 66.7292 38.96C66.4359 38.48 66.2892 37.8667 66.2892 37.12C66.2892 36.32 66.5026 35.5933 66.9292 34.94C67.3692 34.2733 68.0226 33.7467 68.8892 33.36C69.7692 32.96 70.8692 32.76 72.1892 32.76C73.0692 32.76 73.9359 32.8667 74.7892 33.08C75.6426 33.28 76.3959 33.5867 77.0492 34L76.0492 36.46C75.3959 36.0867 74.7426 35.8133 74.0892 35.64C73.4359 35.4533 72.7959 35.36 72.1692 35.36C71.5426 35.36 71.0292 35.4333 70.6292 35.58C70.2292 35.7267 69.9426 35.92 69.7692 36.16C69.5959 36.3867 69.5092 36.6533 69.5092 36.96C69.5092 37.32 69.6559 37.6133 69.9492 37.84C70.2426 38.0533 70.6292 38.2267 71.1092 38.36C71.5892 38.4933 72.1159 38.6267 72.6892 38.76C73.2759 38.8933 73.8559 39.0467 74.4292 39.22C75.0159 39.3933 75.5492 39.6267 76.0292 39.92C76.5092 40.2133 76.8959 40.6 77.1892 41.08C77.4959 41.56 77.6492 42.1667 77.6492 42.9C77.6492 43.6867 77.4292 44.4067 76.9892 45.06C76.5492 45.7133 75.8892 46.24 75.0092 46.64C74.1426 47.04 73.0426 47.24 71.7092 47.24ZM79.6431 47V36.24H82.7631V47H79.6431ZM81.2031 34.74C80.6298 34.74 80.1631 34.5733 79.8031 34.24C79.4431 33.9067 79.2631 33.4933 79.2631 33C79.2631 32.5067 79.4431 32.0933 79.8031 31.76C80.1631 31.4267 80.6298 31.26 81.2031 31.26C81.7765 31.26 82.2431 31.42 82.6031 31.74C82.9631 32.0467 83.1431 32.4467 83.1431 32.94C83.1431 33.46 82.9631 33.8933 82.6031 34.24C82.2565 34.5733 81.7898 34.74 81.2031 34.74ZM90.7188 51.04C89.7054 51.04 88.7254 50.9133 87.7788 50.66C86.8454 50.42 86.0654 50.0533 85.4388 49.56L86.6788 47.32C87.1321 47.6933 87.7054 47.9867 88.3988 48.2C89.1054 48.4267 89.7988 48.54 90.4788 48.54C91.5854 48.54 92.3854 48.2933 92.8788 47.8C93.3854 47.3067 93.6388 46.5733 93.6388 45.6V43.98L93.8388 41.28L93.7988 38.56V36.24H96.7588V45.2C96.7588 47.2 96.2388 48.6733 95.1988 49.62C94.1588 50.5667 92.6654 51.04 90.7188 51.04ZM90.2388 46.48C89.2388 46.48 88.3321 46.2667 87.5188 45.84C86.7188 45.4 86.0721 44.7933 85.5788 44.02C85.0988 43.2333 84.8588 42.32 84.8588 41.28C84.8588 40.2267 85.0988 39.3133 85.5788 38.54C86.0721 37.7533 86.7188 37.1467 87.5188 36.72C88.3321 36.2933 89.2388 36.08 90.2388 36.08C91.1454 36.08 91.9454 36.2667 92.6388 36.64C93.3321 37 93.8721 37.5667 94.2588 38.34C94.6454 39.1 94.8388 40.08 94.8388 41.28C94.8388 42.4667 94.6454 43.4467 94.2588 44.22C93.8721 44.98 93.3321 45.5467 92.6388 45.92C91.9454 46.2933 91.1454 46.48 90.2388 46.48ZM90.8588 43.92C91.4054 43.92 91.8921 43.8133 92.3188 43.6C92.7454 43.3733 93.0788 43.06 93.3188 42.66C93.5588 42.26 93.6788 41.8 93.6788 41.28C93.6788 40.7467 93.5588 40.2867 93.3188 39.9C93.0788 39.5 92.7454 39.1933 92.3188 38.98C91.8921 38.7533 91.4054 38.64 90.8588 38.64C90.3121 38.64 89.8254 38.7533 89.3988 38.98C88.9721 39.1933 88.6321 39.5 88.3788 39.9C88.1388 40.2867 88.0188 40.7467 88.0188 41.28C88.0188 41.8 88.1388 42.26 88.3788 42.66C88.6321 43.06 88.9721 43.3733 89.3988 43.6C89.8254 43.8133 90.3121 43.92 90.8588 43.92ZM106.203 36.08C107.056 36.08 107.816 36.2533 108.483 36.6C109.163 36.9333 109.696 37.4533 110.083 38.16C110.469 38.8533 110.663 39.7467 110.663 40.84V47H107.543V41.32C107.543 40.4533 107.349 39.8133 106.963 39.4C106.589 38.9867 106.056 38.78 105.363 38.78C104.869 38.78 104.423 38.8867 104.023 39.1C103.636 39.3 103.329 39.6133 103.103 40.04C102.889 40.4667 102.783 41.0133 102.783 41.68V47H99.6627V36.24H102.643V39.22L102.083 38.32C102.469 37.6 103.023 37.0467 103.743 36.66C104.463 36.2733 105.283 36.08 106.203 36.08ZM123.695 47.16C122.802 47.16 122.002 46.9867 121.295 46.64C120.602 46.2933 120.062 45.7667 119.675 45.06C119.288 44.34 119.095 43.4267 119.095 42.32V36.24H122.215V41.86C122.215 42.7533 122.402 43.4133 122.775 43.84C123.162 44.2533 123.702 44.46 124.395 44.46C124.875 44.46 125.302 44.36 125.675 44.16C126.048 43.9467 126.342 43.6267 126.555 43.2C126.768 42.76 126.875 42.2133 126.875 41.56V36.24H129.995V47H127.035V44.04L127.575 44.9C127.215 45.6467 126.682 46.2133 125.975 46.6C125.282 46.9733 124.522 47.16 123.695 47.16ZM139.245 47.16C138.339 47.16 137.545 46.96 136.865 46.56C136.185 46.16 135.652 45.5533 135.265 44.74C134.892 43.9133 134.705 42.8733 134.705 41.62C134.705 40.3533 134.885 39.3133 135.245 38.5C135.605 37.6867 136.125 37.08 136.805 36.68C137.485 36.28 138.299 36.08 139.245 36.08C140.259 36.08 141.165 36.3133 141.965 36.78C142.779 37.2333 143.419 37.8733 143.885 38.7C144.365 39.5267 144.605 40.5 144.605 41.62C144.605 42.7533 144.365 43.7333 143.885 44.56C143.419 45.3867 142.779 46.0267 141.965 46.48C141.165 46.9333 140.259 47.16 139.245 47.16ZM132.885 50.88V36.24H135.865V38.44L135.805 41.64L136.005 44.82V50.88H132.885ZM138.705 44.6C139.225 44.6 139.685 44.48 140.085 44.24C140.499 44 140.825 43.66 141.065 43.22C141.319 42.7667 141.445 42.2333 141.445 41.62C141.445 40.9933 141.319 40.46 141.065 40.02C140.825 39.58 140.499 39.24 140.085 39C139.685 38.76 139.225 38.64 138.705 38.64C138.185 38.64 137.719 38.76 137.305 39C136.892 39.24 136.565 39.58 136.325 40.02C136.085 40.46 135.965 40.9933 135.965 41.62C135.965 42.2333 136.085 42.7667 136.325 43.22C136.565 43.66 136.892 44 137.305 44.24C137.719 44.48 138.185 44.6 138.705 44.6Z" fill="#F5F5F5"/>
</svg>
