<svg width="614" height="72" viewBox="0 0 614 72" fill="none" xmlns="http://www.w3.org/2000/svg">
<rect width="614" height="72" rx="32" fill="#FAA500"/>
<path d="M266.629 45.288C265.285 45.288 263.997 45.112 262.765 44.76C261.533 44.392 260.541 43.92 259.789 43.344L261.109 40.416C261.829 40.928 262.677 41.352 263.653 41.688C264.645 42.008 265.645 42.168 266.653 42.168C267.421 42.168 268.037 42.096 268.501 41.952C268.981 41.792 269.333 41.576 269.557 41.304C269.781 41.032 269.893 40.72 269.893 40.368C269.893 39.92 269.717 39.568 269.365 39.312C269.013 39.04 268.549 38.824 267.973 38.664C267.397 38.488 266.757 38.328 266.053 38.184C265.365 38.024 264.669 37.832 263.965 37.608C263.277 37.384 262.645 37.096 262.069 36.744C261.493 36.392 261.021 35.928 260.653 35.352C260.301 34.776 260.125 34.04 260.125 33.144C260.125 32.184 260.381 31.312 260.893 30.528C261.421 29.728 262.205 29.096 263.245 28.632C264.301 28.152 265.621 27.912 267.205 27.912C268.261 27.912 269.301 28.04 270.325 28.296C271.349 28.536 272.253 28.904 273.037 29.4L271.837 32.352C271.053 31.904 270.269 31.576 269.485 31.368C268.701 31.144 267.933 31.032 267.181 31.032C266.429 31.032 265.813 31.12 265.333 31.296C264.853 31.472 264.509 31.704 264.301 31.992C264.093 32.264 263.989 32.584 263.989 32.952C263.989 33.384 264.165 33.736 264.517 34.008C264.869 34.264 265.333 34.472 265.909 34.632C266.485 34.792 267.117 34.952 267.805 35.112C268.509 35.272 269.205 35.456 269.893 35.664C270.597 35.872 271.237 36.152 271.813 36.504C272.389 36.856 272.853 37.32 273.205 37.896C273.573 38.472 273.757 39.2 273.757 40.08C273.757 41.024 273.493 41.888 272.965 42.672C272.437 43.456 271.645 44.088 270.589 44.568C269.549 45.048 268.229 45.288 266.629 45.288ZM276.15 45V32.088H279.894V45H276.15ZM278.022 30.288C277.334 30.288 276.774 30.088 276.342 29.688C275.91 29.288 275.694 28.792 275.694 28.2C275.694 27.608 275.91 27.112 276.342 26.712C276.774 26.312 277.334 26.112 278.022 26.112C278.71 26.112 279.27 26.304 279.702 26.688C280.134 27.056 280.35 27.536 280.35 28.128C280.35 28.752 280.134 29.272 279.702 29.688C279.286 30.088 278.726 30.288 278.022 30.288ZM289.441 49.848C288.225 49.848 287.049 49.696 285.913 49.392C284.793 49.104 283.857 48.664 283.105 48.072L284.593 45.384C285.137 45.832 285.825 46.184 286.657 46.44C287.505 46.712 288.337 46.848 289.153 46.848C290.481 46.848 291.441 46.552 292.033 45.96C292.641 45.368 292.945 44.488 292.945 43.32V41.376L293.185 38.136L293.137 34.872V32.088H296.689V42.84C296.689 45.24 296.065 47.008 294.817 48.144C293.569 49.28 291.777 49.848 289.441 49.848ZM288.865 44.376C287.665 44.376 286.577 44.12 285.601 43.608C284.641 43.08 283.865 42.352 283.273 41.424C282.697 40.48 282.409 39.384 282.409 38.136C282.409 36.872 282.697 35.776 283.273 34.848C283.865 33.904 284.641 33.176 285.601 32.664C286.577 32.152 287.665 31.896 288.865 31.896C289.953 31.896 290.913 32.12 291.745 32.568C292.577 33 293.225 33.68 293.689 34.608C294.153 35.52 294.385 36.696 294.385 38.136C294.385 39.56 294.153 40.736 293.689 41.664C293.225 42.576 292.577 43.256 291.745 43.704C290.913 44.152 289.953 44.376 288.865 44.376ZM289.609 41.304C290.265 41.304 290.849 41.176 291.361 40.92C291.873 40.648 292.273 40.272 292.561 39.792C292.849 39.312 292.993 38.76 292.993 38.136C292.993 37.496 292.849 36.944 292.561 36.48C292.273 36 291.873 35.632 291.361 35.376C290.849 35.104 290.265 34.968 289.609 34.968C288.953 34.968 288.369 35.104 287.857 35.376C287.345 35.632 286.937 36 286.633 36.48C286.345 36.944 286.201 37.496 286.201 38.136C286.201 38.76 286.345 39.312 286.633 39.792C286.937 40.272 287.345 40.648 287.857 40.92C288.369 41.176 288.953 41.304 289.609 41.304ZM308.021 31.896C309.045 31.896 309.957 32.104 310.757 32.52C311.573 32.92 312.213 33.544 312.677 34.392C313.141 35.224 313.373 36.296 313.373 37.608V45H309.629V38.184C309.629 37.144 309.397 36.376 308.933 35.88C308.485 35.384 307.845 35.136 307.013 35.136C306.421 35.136 305.885 35.264 305.405 35.52C304.941 35.76 304.573 36.136 304.301 36.648C304.045 37.16 303.917 37.816 303.917 38.616V45H300.173V32.088H303.749V35.664L303.077 34.584C303.541 33.72 304.205 33.056 305.069 32.592C305.933 32.128 306.917 31.896 308.021 31.896ZM329.012 45.192C327.94 45.192 326.98 44.984 326.132 44.568C325.3 44.152 324.652 43.52 324.188 42.672C323.724 41.808 323.492 40.712 323.492 39.384V32.088H327.236V38.832C327.236 39.904 327.46 40.696 327.908 41.208C328.372 41.704 329.02 41.952 329.852 41.952C330.428 41.952 330.94 41.832 331.388 41.592C331.836 41.336 332.188 40.952 332.444 40.44C332.7 39.912 332.828 39.256 332.828 38.472V32.088H336.572V45H333.02V41.448L333.668 42.48C333.236 43.376 332.596 44.056 331.748 44.52C330.916 44.968 330.004 45.192 329.012 45.192ZM347.673 45.192C346.585 45.192 345.633 44.952 344.817 44.472C344.001 43.992 343.361 43.264 342.897 42.288C342.449 41.296 342.225 40.048 342.225 38.544C342.225 37.024 342.441 35.776 342.873 34.8C343.305 33.824 343.929 33.096 344.745 32.616C345.561 32.136 346.537 31.896 347.673 31.896C348.889 31.896 349.977 32.176 350.937 32.736C351.913 33.28 352.681 34.048 353.241 35.04C353.817 36.032 354.105 37.2 354.105 38.544C354.105 39.904 353.817 41.08 353.241 42.072C352.681 43.064 351.913 43.832 350.937 44.376C349.977 44.92 348.889 45.192 347.673 45.192ZM340.041 49.656V32.088H343.617V34.728L343.545 38.568L343.785 42.384V49.656H340.041ZM347.025 42.12C347.649 42.12 348.201 41.976 348.681 41.688C349.177 41.4 349.569 40.992 349.857 40.464C350.161 39.92 350.312 39.28 350.312 38.544C350.312 37.792 350.161 37.152 349.857 36.624C349.569 36.096 349.177 35.688 348.681 35.4C348.201 35.112 347.649 34.968 347.025 34.968C346.401 34.968 345.841 35.112 345.345 35.4C344.849 35.688 344.457 36.096 344.169 36.624C343.881 37.152 343.737 37.792 343.737 38.544C343.737 39.28 343.881 39.92 344.169 40.464C344.457 40.992 344.849 41.4 345.345 41.688C345.841 41.976 346.401 42.12 347.025 42.12Z" fill="#F5F5F5"/>
</svg>
