<svg width="210" height="48" viewBox="0 0 210 48" fill="none" xmlns="http://www.w3.org/2000/svg">
<rect x="0.203125" width="209" height="48" rx="24" fill="#FAA500"/>
<path d="M71.5286 31.2C70.4353 31.2 69.3886 31.0467 68.3886 30.74C67.3886 30.42 66.5953 30.0133 66.0086 29.52L66.9086 27.5C67.4686 27.94 68.1619 28.3067 68.9886 28.6C69.8153 28.8933 70.6619 29.04 71.5286 29.04C72.2619 29.04 72.8553 28.96 73.3086 28.8C73.7619 28.64 74.0953 28.4267 74.3086 28.16C74.5219 27.88 74.6286 27.5667 74.6286 27.22C74.6286 26.7933 74.4753 26.4533 74.1686 26.2C73.8619 25.9333 73.4619 25.7267 72.9686 25.58C72.4886 25.42 71.9486 25.2733 71.3486 25.14C70.7619 25.0067 70.1686 24.8533 69.5686 24.68C68.9819 24.4933 68.4419 24.26 67.9486 23.98C67.4686 23.6867 67.0753 23.3 66.7686 22.82C66.4619 22.34 66.3086 21.7267 66.3086 20.98C66.3086 20.22 66.5086 19.5267 66.9086 18.9C67.3219 18.26 67.9419 17.7533 68.7686 17.38C69.6086 16.9933 70.6686 16.8 71.9486 16.8C72.7886 16.8 73.6219 16.9067 74.4486 17.12C75.2753 17.3333 75.9953 17.64 76.6086 18.04L75.7886 20.06C75.1619 19.6867 74.5153 19.4133 73.8486 19.24C73.1819 19.0533 72.5419 18.96 71.9286 18.96C71.2086 18.96 70.6219 19.0467 70.1686 19.22C69.7286 19.3933 69.4019 19.62 69.1886 19.9C68.9886 20.18 68.8886 20.5 68.8886 20.86C68.8886 21.2867 69.0353 21.6333 69.3286 21.9C69.6353 22.1533 70.0286 22.3533 70.5086 22.5C71.0019 22.6467 71.5486 22.7933 72.1486 22.94C72.7486 23.0733 73.3419 23.2267 73.9286 23.4C74.5286 23.5733 75.0686 23.8 75.5486 24.08C76.0419 24.36 76.4353 24.74 76.7286 25.22C77.0353 25.7 77.1886 26.3067 77.1886 27.04C77.1886 27.7867 76.9819 28.48 76.5686 29.12C76.1686 29.7467 75.5486 30.2533 74.7086 30.64C73.8686 31.0133 72.8086 31.2 71.5286 31.2ZM79.5267 31V20.32H82.0267V31H79.5267ZM80.7867 18.56C80.3201 18.56 79.9334 18.4133 79.6267 18.12C79.3334 17.8267 79.1867 17.4733 79.1867 17.06C79.1867 16.6333 79.3334 16.28 79.6267 16C79.9334 15.7067 80.3201 15.56 80.7867 15.56C81.2534 15.56 81.6334 15.7 81.9267 15.98C82.2334 16.2467 82.3867 16.5867 82.3867 17C82.3867 17.44 82.2401 17.8133 81.9467 18.12C81.6534 18.4133 81.2667 18.56 80.7867 18.56ZM90.148 35.02C89.1613 35.02 88.1946 34.8867 87.248 34.62C86.3146 34.3667 85.548 33.9933 84.948 33.5L86.068 31.62C86.5346 32.0067 87.1213 32.3133 87.828 32.54C88.548 32.78 89.2746 32.9 90.008 32.9C91.1813 32.9 92.0413 32.6267 92.588 32.08C93.1346 31.5467 93.408 30.74 93.408 29.66V27.76L93.608 25.34L93.528 22.92V20.32H95.908V29.38C95.908 31.3133 95.4146 32.7333 94.428 33.64C93.4413 34.56 92.0146 35.02 90.148 35.02ZM89.828 30.52C88.8146 30.52 87.8946 30.3067 87.068 29.88C86.2546 29.44 85.608 28.8333 85.128 28.06C84.6613 27.2867 84.428 26.38 84.428 25.34C84.428 24.3133 84.6613 23.4133 85.128 22.64C85.608 21.8667 86.2546 21.2667 87.068 20.84C87.8946 20.4133 88.8146 20.2 89.828 20.2C90.7346 20.2 91.548 20.38 92.268 20.74C92.988 21.1 93.5613 21.66 93.988 22.42C94.428 23.18 94.648 24.1533 94.648 25.34C94.648 26.5267 94.428 27.5067 93.988 28.28C93.5613 29.04 92.988 29.6067 92.268 29.98C91.548 30.34 90.7346 30.52 89.828 30.52ZM90.208 28.4C90.8346 28.4 91.3946 28.2733 91.888 28.02C92.3813 27.7533 92.7613 27.3933 93.028 26.94C93.308 26.4733 93.448 25.94 93.448 25.34C93.448 24.74 93.308 24.2133 93.028 23.76C92.7613 23.2933 92.3813 22.94 91.888 22.7C91.3946 22.4467 90.8346 22.32 90.208 22.32C89.5813 22.32 89.0146 22.4467 88.508 22.7C88.0146 22.94 87.628 23.2933 87.348 23.76C87.0813 24.2133 86.948 24.74 86.948 25.34C86.948 25.94 87.0813 26.4733 87.348 26.94C87.628 27.3933 88.0146 27.7533 88.508 28.02C89.0146 28.2733 89.5813 28.4 90.208 28.4ZM105.255 20.2C106.108 20.2 106.868 20.3667 107.535 20.7C108.215 21.0333 108.748 21.5467 109.135 22.24C109.521 22.92 109.715 23.8 109.715 24.88V31H107.215V25.2C107.215 24.2533 106.988 23.5467 106.535 23.08C106.095 22.6133 105.475 22.38 104.675 22.38C104.088 22.38 103.568 22.5 103.115 22.74C102.661 22.98 102.308 23.34 102.055 23.82C101.815 24.2867 101.695 24.88 101.695 25.6V31H99.1947V20.32H101.575V23.2L101.155 22.32C101.528 21.64 102.068 21.12 102.775 20.76C103.495 20.3867 104.321 20.2 105.255 20.2ZM122.933 31.14C122.027 31.14 121.227 30.9733 120.533 30.64C119.84 30.2933 119.3 29.7733 118.913 29.08C118.527 28.3733 118.333 27.4867 118.333 26.42V20.32H120.833V26.08C120.833 27.04 121.047 27.76 121.473 28.24C121.913 28.7067 122.533 28.94 123.333 28.94C123.92 28.94 124.427 28.82 124.853 28.58C125.293 28.34 125.633 27.98 125.873 27.5C126.127 27.02 126.253 26.4267 126.253 25.72V20.32H128.753V31H126.373V28.12L126.793 29C126.433 29.6933 125.907 30.2267 125.213 30.6C124.52 30.96 123.76 31.14 122.933 31.14ZM137.947 31.14C137.08 31.14 136.287 30.94 135.567 30.54C134.86 30.14 134.293 29.54 133.867 28.74C133.453 27.9267 133.247 26.9 133.247 25.66C133.247 24.4067 133.447 23.38 133.847 22.58C134.26 21.78 134.82 21.1867 135.527 20.8C136.233 20.4 137.04 20.2 137.947 20.2C139 20.2 139.927 20.4267 140.727 20.88C141.54 21.3333 142.18 21.9667 142.647 22.78C143.127 23.5933 143.367 24.5533 143.367 25.66C143.367 26.7667 143.127 27.7333 142.647 28.56C142.18 29.3733 141.54 30.0067 140.727 30.46C139.927 30.9133 139 31.14 137.947 31.14ZM132.027 34.88V20.32H134.407V22.84L134.327 25.68L134.527 28.52V34.88H132.027ZM137.667 29C138.267 29 138.8 28.8667 139.267 28.6C139.747 28.3333 140.127 27.9467 140.407 27.44C140.687 26.9333 140.827 26.34 140.827 25.66C140.827 24.9667 140.687 24.3733 140.407 23.88C140.127 23.3733 139.747 22.9867 139.267 22.72C138.8 22.4533 138.267 22.32 137.667 22.32C137.067 22.32 136.527 22.4533 136.047 22.72C135.567 22.9867 135.187 23.3733 134.907 23.88C134.627 24.3733 134.487 24.9667 134.487 25.66C134.487 26.34 134.627 26.9333 134.907 27.44C135.187 27.9467 135.567 28.3333 136.047 28.6C136.527 28.8667 137.067 29 137.667 29Z" fill="#141414"/>
</svg>
