<svg width="134" height="148" viewBox="0 0 134 148" fill="none" xmlns="http://www.w3.org/2000/svg">
<circle cx="67" cy="67" r="65" stroke="black" stroke-width="4"/>
<g clip-path="url(#clip0_177_26091)">
<circle cx="66.5" cy="49.5" r="29.5" stroke="black" stroke-width="4"/>
<mask id="path-3-inside-1_177_26091" fill="white">
<path d="M98 116.5C98 112.363 97.1852 108.267 95.6022 104.445C94.0192 100.624 91.6989 97.1512 88.7739 94.2261C85.8488 91.3011 82.3763 88.9808 78.5545 87.3978C74.7328 85.8148 70.6366 85 66.5 85C62.3634 85 58.2672 85.8148 54.4455 87.3978C50.6237 88.9808 47.1512 91.3011 44.2261 94.2261C41.3011 97.1512 38.9808 100.624 37.3978 104.445C35.8148 108.267 35 112.363 35 116.5L66.5 116.5H98Z"/>
</mask>
<path d="M98 116.5C98 112.363 97.1852 108.267 95.6022 104.445C94.0192 100.624 91.6989 97.1512 88.7739 94.2261C85.8488 91.3011 82.3763 88.9808 78.5545 87.3978C74.7328 85.8148 70.6366 85 66.5 85C62.3634 85 58.2672 85.8148 54.4455 87.3978C50.6237 88.9808 47.1512 91.3011 44.2261 94.2261C41.3011 97.1512 38.9808 100.624 37.3978 104.445C35.8148 108.267 35 112.363 35 116.5L66.5 116.5H98Z" stroke="black" stroke-width="8" mask="url(#path-3-inside-1_177_26091)"/>
</g>
<defs>
<clipPath id="clip0_177_26091">
<rect width="63" height="130" fill="white" transform="translate(35 18)"/>
</clipPath>
</defs>
</svg>
