<svg width="278" height="263" viewBox="0 0 278 263" fill="none" xmlns="http://www.w3.org/2000/svg">
<g clip-path="url(#clip0_229_616)">
<path d="M146.544 2H131.456C59.9594 2 2 59.9592 2 131.456C2 202.952 59.9594 260.911 131.456 260.911H146.544C218.041 260.911 276 202.952 276 131.456C276 59.9592 218.041 2 146.544 2Z" fill="white"/>
<path d="M154.2 64.5243C153.331 64.0991 152.359 63.9272 151.397 64.0281C150.435 64.129 149.52 64.4987 148.756 65.0951L103.601 100.323H74.3448C71.6012 100.323 68.97 101.416 67.0299 103.362C65.0899 105.309 64 107.948 64 110.701V152.213C64 154.966 65.0899 157.606 67.0299 159.552C68.97 161.498 71.6012 162.592 74.3448 162.592H103.601L148.756 197.819C149.521 198.415 150.436 198.784 151.399 198.884C152.361 198.984 153.333 198.811 154.202 198.384C155.072 197.958 155.805 197.295 156.318 196.472C156.83 195.648 157.103 194.697 157.103 193.726V69.188C157.104 68.2159 156.832 67.2633 156.318 66.4387C155.805 65.6142 155.071 64.9509 154.2 64.5243ZM74.3448 110.701H100.207V152.213H74.3448V110.701ZM146.759 183.114L110.552 154.866V108.048L146.759 79.7997V183.114ZM181.672 114.307C185.833 119.045 188.128 125.143 188.128 131.457C188.128 137.771 185.833 143.869 181.672 148.607C180.759 149.614 179.487 150.221 178.131 150.296C176.775 150.37 175.445 149.907 174.426 149.007C173.408 148.106 172.783 146.839 172.688 145.481C172.592 144.122 173.032 142.78 173.914 141.744C176.409 138.902 177.785 135.244 177.785 131.457C177.785 127.67 176.409 124.012 173.914 121.17C173.032 120.134 172.592 118.792 172.688 117.433C172.783 116.075 173.408 114.808 174.426 113.907C175.445 113.007 176.775 112.544 178.131 112.618C179.487 112.693 180.759 113.3 181.672 114.307ZM214 131.457C214.007 144.224 209.318 156.544 200.83 166.055C199.908 167.055 198.632 167.652 197.276 167.717C195.92 167.781 194.593 167.308 193.581 166.4C192.57 165.491 191.955 164.22 191.869 162.861C191.783 161.502 192.234 160.163 193.123 159.134C199.908 151.523 203.659 141.671 203.659 131.46C203.659 121.25 199.908 111.397 193.123 103.786C192.657 103.281 192.296 102.687 192.061 102.04C191.827 101.394 191.722 100.706 191.755 100.019C191.787 99.3312 191.956 98.6569 192.251 98.0353C192.545 97.4137 192.96 96.8571 193.472 96.398C193.983 95.9388 194.58 95.5864 195.229 95.361C195.877 95.1357 196.563 95.0421 197.248 95.0856C197.933 95.1291 198.602 95.3089 199.217 95.6144C199.832 95.9199 200.38 96.3452 200.83 96.8653C209.32 106.373 214.01 118.692 214 131.457Z" fill="#FAA500"/>
<path d="M146.544 2H131.456C59.9594 2 2 59.9592 2 131.456C2 202.952 59.9594 260.911 131.456 260.911H146.544C218.041 260.911 276 202.952 276 131.456C276 59.9592 218.041 2 146.544 2Z" stroke="black" stroke-width="4"/>
</g>
<defs>
<clipPath id="clip0_229_616">
<rect width="278" height="263" fill="white"/>
</clipPath>
</defs>
</svg>
