<svg width="166" height="48" viewBox="0 0 166 48" fill="none" xmlns="http://www.w3.org/2000/svg">
<rect width="166" height="48" rx="24" fill="#FAA500"/>
<path d="M36.9589 29.66C36.2443 29.66 35.5829 29.5213 34.9749 29.244C34.3776 28.9667 33.8869 28.5667 33.5029 28.044L34.6869 26.62C34.9963 27.0467 35.3323 27.3667 35.6949 27.58C36.0683 27.7933 36.4736 27.9 36.9109 27.9C38.0736 27.9 38.6549 27.212 38.6549 25.836V20.044H34.6709V18.3H40.7349V25.724C40.7349 27.0467 40.4096 28.0333 39.7589 28.684C39.1189 29.3347 38.1856 29.66 36.9589 29.66ZM47.3004 29.612C46.4258 29.612 45.6471 29.4253 44.9644 29.052C44.2818 28.668 43.7431 28.1453 43.3484 27.484C42.9538 26.8227 42.7564 26.0707 42.7564 25.228C42.7564 24.3747 42.9538 23.6227 43.3484 22.972C43.7431 22.3107 44.2818 21.7933 44.9644 21.42C45.6471 21.0467 46.4258 20.86 47.3004 20.86C48.1858 20.86 48.9698 21.0467 49.6524 21.42C50.3458 21.7933 50.8844 22.3053 51.2684 22.956C51.6631 23.6067 51.8604 24.364 51.8604 25.228C51.8604 26.0707 51.6631 26.8227 51.2684 27.484C50.8844 28.1453 50.3458 28.668 49.6524 29.052C48.9698 29.4253 48.1858 29.612 47.3004 29.612ZM47.3004 27.9C47.7911 27.9 48.2284 27.7933 48.6124 27.58C48.9964 27.3667 49.2951 27.0573 49.5084 26.652C49.7324 26.2467 49.8444 25.772 49.8444 25.228C49.8444 24.6733 49.7324 24.1987 49.5084 23.804C49.2951 23.3987 48.9964 23.0893 48.6124 22.876C48.2284 22.6627 47.7964 22.556 47.3164 22.556C46.8258 22.556 46.3884 22.6627 46.0044 22.876C45.6311 23.0893 45.3324 23.3987 45.1084 23.804C44.8844 24.1987 44.7724 24.6733 44.7724 25.228C44.7724 25.772 44.8844 26.2467 45.1084 26.652C45.3324 27.0573 45.6311 27.3667 46.0044 27.58C46.3884 27.7933 46.8204 27.9 47.3004 27.9ZM53.7729 29.5V20.956H55.7729V29.5H53.7729ZM54.7809 19.548C54.4076 19.548 54.0983 19.4307 53.8529 19.196C53.6183 18.9613 53.5009 18.6787 53.5009 18.348C53.5009 18.0067 53.6183 17.724 53.8529 17.5C54.0983 17.2653 54.4076 17.148 54.7809 17.148C55.1543 17.148 55.4583 17.26 55.6929 17.484C55.9383 17.6973 56.0609 17.9693 56.0609 18.3C56.0609 18.652 55.9436 18.9507 55.7089 19.196C55.4743 19.4307 55.1649 19.548 54.7809 19.548ZM63.2459 20.86C63.9286 20.86 64.5366 20.9933 65.0699 21.26C65.6139 21.5267 66.0406 21.9373 66.3499 22.492C66.6593 23.036 66.8139 23.74 66.8139 24.604V29.5H64.8139V24.86C64.8139 24.1027 64.6326 23.5373 64.2699 23.164C63.9179 22.7907 63.4219 22.604 62.7819 22.604C62.3126 22.604 61.8966 22.7 61.5339 22.892C61.1713 23.084 60.8886 23.372 60.6859 23.756C60.4939 24.1293 60.3979 24.604 60.3979 25.18V29.5H58.3979V20.956H60.3019V23.26L59.9659 22.556C60.2646 22.012 60.6966 21.596 61.2619 21.308C61.8379 21.0093 62.4993 20.86 63.2459 20.86ZM75.6609 29.5L72.5249 20.956H74.4129L77.1009 28.492H76.2049L79.0209 20.956H80.7009L83.4369 28.492H82.5569L85.3249 20.956H87.1009L83.9489 29.5H82.0289L79.5329 22.828H80.1249L77.5809 29.5H75.6609ZM93.4744 29.5V27.772L93.3624 27.404V24.38C93.3624 23.7933 93.1864 23.34 92.8344 23.02C92.4824 22.6893 91.9491 22.524 91.2344 22.524C90.7544 22.524 90.2798 22.5987 89.8104 22.748C89.3518 22.8973 88.9624 23.1053 88.6424 23.372L87.8584 21.916C88.3171 21.564 88.8611 21.3027 89.4904 21.132C90.1304 20.9507 90.7918 20.86 91.4744 20.86C92.7118 20.86 93.6664 21.1587 94.3384 21.756C95.0211 22.3427 95.3624 23.2547 95.3624 24.492V29.5H93.4744ZM90.7864 29.612C90.1464 29.612 89.5864 29.5053 89.1064 29.292C88.6264 29.068 88.2531 28.764 87.9864 28.38C87.7304 27.9853 87.6024 27.5427 87.6024 27.052C87.6024 26.572 87.7144 26.14 87.9384 25.756C88.1731 25.372 88.5518 25.068 89.0744 24.844C89.5971 24.62 90.2904 24.508 91.1544 24.508H93.6344V25.836H91.2984C90.6158 25.836 90.1571 25.948 89.9224 26.172C89.6878 26.3853 89.5704 26.652 89.5704 26.972C89.5704 27.3347 89.7144 27.6227 90.0024 27.836C90.2904 28.0493 90.6904 28.156 91.2024 28.156C91.6931 28.156 92.1304 28.044 92.5144 27.82C92.9091 27.596 93.1918 27.2653 93.3624 26.828L93.6984 28.028C93.5064 28.5293 93.1598 28.9187 92.6584 29.196C92.1678 29.4733 91.5438 29.612 90.7864 29.612ZM97.9292 29.5V20.956H99.9292V29.5H97.9292ZM98.9372 19.548C98.5639 19.548 98.2545 19.4307 98.0092 19.196C97.7745 18.9613 97.6572 18.6787 97.6572 18.348C97.6572 18.0067 97.7745 17.724 98.0092 17.5C98.2545 17.2653 98.5639 17.148 98.9372 17.148C99.3105 17.148 99.6145 17.26 99.8492 17.484C100.095 17.6973 100.217 17.9693 100.217 18.3C100.217 18.652 100.1 18.9507 99.8652 19.196C99.6305 19.4307 99.3212 19.548 98.9372 19.548ZM105.77 29.612C104.832 29.612 104.106 29.372 103.594 28.892C103.082 28.4013 102.826 27.6813 102.826 26.732V19.068H104.826V26.684C104.826 27.0893 104.928 27.404 105.13 27.628C105.344 27.852 105.637 27.964 106.01 27.964C106.458 27.964 106.832 27.8467 107.13 27.612L107.69 29.036C107.456 29.228 107.168 29.372 106.826 29.468C106.485 29.564 106.133 29.612 105.77 29.612ZM101.418 22.62V21.02H107.114V22.62H101.418ZM109.335 29.5V17.628H111.335V29.5H109.335ZM113.96 29.5V20.956H115.96V29.5H113.96ZM114.968 19.548C114.595 19.548 114.286 19.4307 114.04 19.196C113.806 18.9613 113.688 18.6787 113.688 18.348C113.688 18.0067 113.806 17.724 114.04 17.5C114.286 17.2653 114.595 17.148 114.968 17.148C115.342 17.148 115.646 17.26 115.88 17.484C116.126 17.6973 116.248 17.9693 116.248 18.3C116.248 18.652 116.131 18.9507 115.896 19.196C115.662 19.4307 115.352 19.548 114.968 19.548ZM121.225 29.612C120.511 29.612 119.823 29.5213 119.161 29.34C118.511 29.148 117.993 28.9187 117.609 28.652L118.377 27.132C118.761 27.3773 119.22 27.58 119.753 27.74C120.287 27.9 120.82 27.98 121.353 27.98C121.983 27.98 122.436 27.8947 122.713 27.724C123.001 27.5533 123.145 27.324 123.145 27.036C123.145 26.8013 123.049 26.6253 122.857 26.508C122.665 26.38 122.415 26.284 122.105 26.22C121.796 26.156 121.449 26.0973 121.065 26.044C120.692 25.9907 120.313 25.9213 119.929 25.836C119.556 25.74 119.215 25.6067 118.905 25.436C118.596 25.2547 118.345 25.0147 118.153 24.716C117.961 24.4173 117.865 24.0227 117.865 23.532C117.865 22.988 118.02 22.5187 118.329 22.124C118.639 21.7187 119.071 21.4093 119.625 21.196C120.191 20.972 120.857 20.86 121.625 20.86C122.201 20.86 122.783 20.924 123.369 21.052C123.956 21.18 124.441 21.3613 124.825 21.596L124.057 23.116C123.652 22.8707 123.241 22.7053 122.825 22.62C122.42 22.524 122.015 22.476 121.609 22.476C121.001 22.476 120.548 22.5667 120.249 22.748C119.961 22.9293 119.817 23.1587 119.817 23.436C119.817 23.692 119.913 23.884 120.105 24.012C120.297 24.14 120.548 24.2413 120.857 24.316C121.167 24.3907 121.508 24.4547 121.881 24.508C122.265 24.5507 122.644 24.62 123.017 24.716C123.391 24.812 123.732 24.9453 124.041 25.116C124.361 25.276 124.617 25.5053 124.809 25.804C125.001 26.1027 125.097 26.492 125.097 26.972C125.097 27.5053 124.937 27.9693 124.617 28.364C124.308 28.7587 123.865 29.068 123.289 29.292C122.713 29.5053 122.025 29.612 121.225 29.612ZM130.036 29.612C129.097 29.612 128.372 29.372 127.86 28.892C127.348 28.4013 127.092 27.6813 127.092 26.732V19.068H129.092V26.684C129.092 27.0893 129.193 27.404 129.396 27.628C129.609 27.852 129.902 27.964 130.276 27.964C130.724 27.964 131.097 27.8467 131.396 27.612L131.956 29.036C131.721 29.228 131.433 29.372 131.092 29.468C130.75 29.564 130.398 29.612 130.036 29.612ZM125.684 22.62V21.02H131.38V22.62H125.684Z" fill="#F5F5F5"/>
</svg>

