<svg width="166" height="60" viewBox="0 0 166 60" fill="none" xmlns="http://www.w3.org/2000/svg">
<rect y="0.5" width="166" height="59" rx="29.5" fill="#FAA500"/>
<path d="M36.9589 35.66C36.2443 35.66 35.5829 35.5213 34.9749 35.244C34.3776 34.9667 33.8869 34.5667 33.5029 34.044L34.6869 32.62C34.9963 33.0467 35.3323 33.3667 35.6949 33.58C36.0683 33.7933 36.4736 33.9 36.9109 33.9C38.0736 33.9 38.6549 33.212 38.6549 31.836V26.044H34.6709V24.3H40.7349V31.724C40.7349 33.0467 40.4096 34.0333 39.7589 34.684C39.1189 35.3347 38.1856 35.66 36.9589 35.66ZM47.3004 35.612C46.4258 35.612 45.6471 35.4253 44.9644 35.052C44.2818 34.668 43.7431 34.1453 43.3484 33.484C42.9538 32.8227 42.7564 32.0707 42.7564 31.228C42.7564 30.3747 42.9538 29.6227 43.3484 28.972C43.7431 28.3107 44.2818 27.7933 44.9644 27.42C45.6471 27.0467 46.4258 26.86 47.3004 26.86C48.1858 26.86 48.9698 27.0467 49.6524 27.42C50.3458 27.7933 50.8844 28.3053 51.2684 28.956C51.6631 29.6067 51.8604 30.364 51.8604 31.228C51.8604 32.0707 51.6631 32.8227 51.2684 33.484C50.8844 34.1453 50.3458 34.668 49.6524 35.052C48.9698 35.4253 48.1858 35.612 47.3004 35.612ZM47.3004 33.9C47.7911 33.9 48.2284 33.7933 48.6124 33.58C48.9964 33.3667 49.2951 33.0573 49.5084 32.652C49.7324 32.2467 49.8444 31.772 49.8444 31.228C49.8444 30.6733 49.7324 30.1987 49.5084 29.804C49.2951 29.3987 48.9964 29.0893 48.6124 28.876C48.2284 28.6627 47.7964 28.556 47.3164 28.556C46.8258 28.556 46.3884 28.6627 46.0044 28.876C45.6311 29.0893 45.3324 29.3987 45.1084 29.804C44.8844 30.1987 44.7724 30.6733 44.7724 31.228C44.7724 31.772 44.8844 32.2467 45.1084 32.652C45.3324 33.0573 45.6311 33.3667 46.0044 33.58C46.3884 33.7933 46.8204 33.9 47.3004 33.9ZM53.7729 35.5V26.956H55.7729V35.5H53.7729ZM54.7809 25.548C54.4076 25.548 54.0983 25.4307 53.8529 25.196C53.6183 24.9613 53.5009 24.6787 53.5009 24.348C53.5009 24.0067 53.6183 23.724 53.8529 23.5C54.0983 23.2653 54.4076 23.148 54.7809 23.148C55.1543 23.148 55.4583 23.26 55.6929 23.484C55.9383 23.6973 56.0609 23.9693 56.0609 24.3C56.0609 24.652 55.9436 24.9507 55.7089 25.196C55.4743 25.4307 55.1649 25.548 54.7809 25.548ZM63.2459 26.86C63.9286 26.86 64.5366 26.9933 65.0699 27.26C65.6139 27.5267 66.0406 27.9373 66.3499 28.492C66.6593 29.036 66.8139 29.74 66.8139 30.604V35.5H64.8139V30.86C64.8139 30.1027 64.6326 29.5373 64.2699 29.164C63.9179 28.7907 63.4219 28.604 62.7819 28.604C62.3126 28.604 61.8966 28.7 61.5339 28.892C61.1713 29.084 60.8886 29.372 60.6859 29.756C60.4939 30.1293 60.3979 30.604 60.3979 31.18V35.5H58.3979V26.956H60.3019V29.26L59.9659 28.556C60.2646 28.012 60.6966 27.596 61.2619 27.308C61.8379 27.0093 62.4993 26.86 63.2459 26.86ZM75.6609 35.5L72.5249 26.956H74.4129L77.1009 34.492H76.2049L79.0209 26.956H80.7009L83.4369 34.492H82.5569L85.3249 26.956H87.1009L83.9489 35.5H82.0289L79.5329 28.828H80.1249L77.5809 35.5H75.6609ZM93.4744 35.5V33.772L93.3624 33.404V30.38C93.3624 29.7933 93.1864 29.34 92.8344 29.02C92.4824 28.6893 91.9491 28.524 91.2344 28.524C90.7544 28.524 90.2798 28.5987 89.8104 28.748C89.3518 28.8973 88.9624 29.1053 88.6424 29.372L87.8584 27.916C88.3171 27.564 88.8611 27.3027 89.4904 27.132C90.1304 26.9507 90.7918 26.86 91.4744 26.86C92.7118 26.86 93.6664 27.1587 94.3384 27.756C95.0211 28.3427 95.3624 29.2547 95.3624 30.492V35.5H93.4744ZM90.7864 35.612C90.1464 35.612 89.5864 35.5053 89.1064 35.292C88.6264 35.068 88.2531 34.764 87.9864 34.38C87.7304 33.9853 87.6024 33.5427 87.6024 33.052C87.6024 32.572 87.7144 32.14 87.9384 31.756C88.1731 31.372 88.5518 31.068 89.0744 30.844C89.5971 30.62 90.2904 30.508 91.1544 30.508H93.6344V31.836H91.2984C90.6158 31.836 90.1571 31.948 89.9224 32.172C89.6878 32.3853 89.5704 32.652 89.5704 32.972C89.5704 33.3347 89.7144 33.6227 90.0024 33.836C90.2904 34.0493 90.6904 34.156 91.2024 34.156C91.6931 34.156 92.1304 34.044 92.5144 33.82C92.9091 33.596 93.1918 33.2653 93.3624 32.828L93.6984 34.028C93.5064 34.5293 93.1598 34.9187 92.6584 35.196C92.1678 35.4733 91.5438 35.612 90.7864 35.612ZM97.9292 35.5V26.956H99.9292V35.5H97.9292ZM98.9372 25.548C98.5639 25.548 98.2545 25.4307 98.0092 25.196C97.7745 24.9613 97.6572 24.6787 97.6572 24.348C97.6572 24.0067 97.7745 23.724 98.0092 23.5C98.2545 23.2653 98.5639 23.148 98.9372 23.148C99.3105 23.148 99.6145 23.26 99.8492 23.484C100.095 23.6973 100.217 23.9693 100.217 24.3C100.217 24.652 100.1 24.9507 99.8652 25.196C99.6305 25.4307 99.3212 25.548 98.9372 25.548ZM105.77 35.612C104.832 35.612 104.106 35.372 103.594 34.892C103.082 34.4013 102.826 33.6813 102.826 32.732V25.068H104.826V32.684C104.826 33.0893 104.928 33.404 105.13 33.628C105.344 33.852 105.637 33.964 106.01 33.964C106.458 33.964 106.832 33.8467 107.13 33.612L107.69 35.036C107.456 35.228 107.168 35.372 106.826 35.468C106.485 35.564 106.133 35.612 105.77 35.612ZM101.418 28.62V27.02H107.114V28.62H101.418ZM109.335 35.5V23.628H111.335V35.5H109.335ZM113.96 35.5V26.956H115.96V35.5H113.96ZM114.968 25.548C114.595 25.548 114.286 25.4307 114.04 25.196C113.806 24.9613 113.688 24.6787 113.688 24.348C113.688 24.0067 113.806 23.724 114.04 23.5C114.286 23.2653 114.595 23.148 114.968 23.148C115.342 23.148 115.646 23.26 115.88 23.484C116.126 23.6973 116.248 23.9693 116.248 24.3C116.248 24.652 116.131 24.9507 115.896 25.196C115.662 25.4307 115.352 25.548 114.968 25.548ZM121.225 35.612C120.511 35.612 119.823 35.5213 119.161 35.34C118.511 35.148 117.993 34.9187 117.609 34.652L118.377 33.132C118.761 33.3773 119.22 33.58 119.753 33.74C120.287 33.9 120.82 33.98 121.353 33.98C121.983 33.98 122.436 33.8947 122.713 33.724C123.001 33.5533 123.145 33.324 123.145 33.036C123.145 32.8013 123.049 32.6253 122.857 32.508C122.665 32.38 122.415 32.284 122.105 32.22C121.796 32.156 121.449 32.0973 121.065 32.044C120.692 31.9907 120.313 31.9213 119.929 31.836C119.556 31.74 119.215 31.6067 118.905 31.436C118.596 31.2547 118.345 31.0147 118.153 30.716C117.961 30.4173 117.865 30.0227 117.865 29.532C117.865 28.988 118.02 28.5187 118.329 28.124C118.639 27.7187 119.071 27.4093 119.625 27.196C120.191 26.972 120.857 26.86 121.625 26.86C122.201 26.86 122.783 26.924 123.369 27.052C123.956 27.18 124.441 27.3613 124.825 27.596L124.057 29.116C123.652 28.8707 123.241 28.7053 122.825 28.62C122.42 28.524 122.015 28.476 121.609 28.476C121.001 28.476 120.548 28.5667 120.249 28.748C119.961 28.9293 119.817 29.1587 119.817 29.436C119.817 29.692 119.913 29.884 120.105 30.012C120.297 30.14 120.548 30.2413 120.857 30.316C121.167 30.3907 121.508 30.4547 121.881 30.508C122.265 30.5507 122.644 30.62 123.017 30.716C123.391 30.812 123.732 30.9453 124.041 31.116C124.361 31.276 124.617 31.5053 124.809 31.804C125.001 32.1027 125.097 32.492 125.097 32.972C125.097 33.5053 124.937 33.9693 124.617 34.364C124.308 34.7587 123.865 35.068 123.289 35.292C122.713 35.5053 122.025 35.612 121.225 35.612ZM130.036 35.612C129.097 35.612 128.372 35.372 127.86 34.892C127.348 34.4013 127.092 33.6813 127.092 32.732V25.068H129.092V32.684C129.092 33.0893 129.193 33.404 129.396 33.628C129.609 33.852 129.902 33.964 130.276 33.964C130.724 33.964 131.097 33.8467 131.396 33.612L131.956 35.036C131.721 35.228 131.433 35.372 131.092 35.468C130.75 35.564 130.398 35.612 130.036 35.612ZM125.684 28.62V27.02H131.38V28.62H125.684Z" fill="#F5F5F5"/>
</svg>
